# Blender 4.2.0
# www.blender.org
mtllib VentCard.mtl
o Cube.001
v 6.648986 0.981231 3.855726
v 6.648986 1.321106 3.855726
v 6.648986 0.981231 3.651928
v 6.648986 1.321106 3.651928
v 6.565555 0.981231 3.855726
v 6.565555 1.321106 3.855726
v 6.565555 0.981231 3.651928
v 6.565555 1.321106 3.651928
v 6.549509 1.297489 3.671920
v 6.549509 1.004848 3.671920
v 6.549509 1.004848 3.835734
v 6.549509 1.297489 3.835734
v 6.549509 1.263626 3.690876
v 6.549509 1.038711 3.690876
v 6.549509 1.038711 3.816778
v 6.549509 1.263626 3.816778
v 6.648986 1.208740 3.855726
v 6.648986 1.208740 3.651928
v 6.565555 1.208740 3.651928
v 6.565555 1.208740 3.855726
v 6.549509 1.208740 3.671920
v 6.549509 1.208740 3.835734
v 6.549509 1.208740 3.690876
v 6.549509 1.208740 3.816778
v 6.573501 1.208740 3.690876
v 6.573501 1.038711 3.690876
v 6.573501 1.038711 3.816778
v 6.573501 1.263626 3.690876
v 6.573501 1.263626 3.816778
v 6.573501 1.208740 3.816778
v 6.595572 1.263626 3.690876
v 6.595572 1.263626 3.816778
v 6.595572 1.208740 3.690876
v 6.595572 1.208740 3.816778
vn -0.0000 -0.0000 -1.0000
vn -0.8271 -0.5620 -0.0000
vn -0.0000 -0.0000 1.0000
vn -0.0000 -1.0000 -0.0000
vn -0.0000 1.0000 -0.0000
vn -1.0000 -0.0000 -0.0000
vn -0.8271 0.5620 -0.0000
vn -0.7799 -0.0000 -0.6259
vn -0.7799 -0.0000 0.6259
vt 0.588891 0.250000
vt 0.625000 0.250000
vt 0.625000 0.500000
vt 0.588891 0.500000
vt 0.375000 0.750000
vt 0.375000 0.500000
vt 0.588891 0.750000
vt 0.625000 0.750000
vt 0.625000 1.000000
vt 0.588891 1.000000
vt 0.125000 0.500000
vt 0.125000 0.750000
vt 0.875000 0.500000
vt 0.875000 0.750000
vt 0.588891 0.750000
vt 0.588891 0.500000
vt 0.375000 1.000000
vt 0.375000 0.250000
s 0
g Cube.001_Light
usemtl Light
f 33/16/6 34/7/6 32/8/6 31/3/6
g Cube.001_Body
usemtl Body
f 18/1/1 19/4/1 8/3/1 4/2/1
f 5/5/2 11/5/2 10/6/2 7/6/2
f 20/7/3 17/10/3 2/9/3 6/8/3
f 3/11/4 1/12/4 5/5/4 7/6/4
f 8/3/5 6/8/5 2/14/5 4/13/5
f 9/3/6 13/3/6 16/8/6 12/8/6
f 8/3/7 9/3/7 12/8/7 6/8/7
f 19/4/8 21/4/8 9/3/8 8/3/8
f 20/7/9 22/15/9 11/5/9 5/5/9
f 13/3/4 28/3/4 29/8/4 16/8/4
f 21/4/6 23/16/6 13/3/6 9/3/6
f 22/15/6 24/7/6 15/5/6 11/5/6
f 11/5/6 15/5/6 14/6/6 10/6/6
f 12/8/6 16/8/6 24/7/6 22/15/6
f 10/6/6 14/6/6 23/16/6 21/4/6
f 16/8/1 29/8/1 30/7/1 24/7/1
f 6/8/9 12/8/9 22/15/9 20/7/9
f 7/6/8 10/6/8 21/4/8 19/4/8
f 5/5/3 1/17/3 17/10/3 20/7/3
f 3/18/1 7/6/1 19/4/1 18/1/1
f 25/16/3 33/16/3 31/3/3 28/3/3
f 26/6/6 27/5/6 30/7/6 25/16/6
f 14/6/3 26/6/3 25/16/3 23/16/3
f 23/16/3 25/16/3 28/3/3 13/3/3
f 24/7/1 30/7/1 27/5/1 15/5/1
f 15/5/5 27/5/5 26/6/5 14/6/5
f 28/3/4 31/3/4 32/8/4 29/8/4
f 29/8/1 32/8/1 34/7/1 30/7/1
f 30/7/5 34/7/5 33/16/5 25/16/5
