# Blender 4.2.0
# www.blender.org
mtllib VentCover.mtl
o Cube
v 6.611674 0.394756 5.545794
v 6.611674 1.907581 5.545794
v 6.611674 0.394756 4.120940
v 6.611674 1.907581 4.120940
v 6.499853 0.394756 5.545794
v 6.499853 1.907581 5.545794
v 6.499853 0.394756 4.120940
v 6.499853 1.907581 4.120940
v 6.611674 0.511127 5.545794
v 6.611674 0.627498 5.545794
v 6.611674 0.743869 5.545794
v 6.611674 0.860240 5.545794
v 6.611674 0.976611 5.545794
v 6.611674 1.092983 5.545794
v 6.611674 1.209354 5.545794
v 6.611674 1.325725 5.545794
v 6.611674 1.442096 5.545794
v 6.611674 1.558467 5.545794
v 6.611674 1.674838 5.545794
v 6.611674 1.791210 5.545794
v 6.611674 1.791210 4.120940
v 6.611674 1.674838 4.120940
v 6.611674 1.558467 4.120940
v 6.611674 1.442096 4.120940
v 6.611674 1.325725 4.120940
v 6.611674 1.209354 4.120940
v 6.611674 1.092983 4.120940
v 6.611674 0.976611 4.120940
v 6.611674 0.860240 4.120940
v 6.611674 0.743869 4.120940
v 6.611674 0.627498 4.120940
v 6.611674 0.511127 4.120940
v 6.499853 1.791210 4.120940
v 6.499853 1.674838 4.120940
v 6.499853 1.558467 4.120940
v 6.499853 1.442096 4.120940
v 6.499853 1.325725 4.120940
v 6.499853 1.209354 4.120940
v 6.499853 1.092983 4.120940
v 6.499853 0.976611 4.120940
v 6.499853 0.860240 4.120940
v 6.499853 0.743869 4.120940
v 6.499853 0.627498 4.120940
v 6.499853 0.511127 4.120940
v 6.499853 1.791210 5.545794
v 6.499853 1.674838 5.545794
v 6.499853 1.558467 5.545794
v 6.499853 1.442096 5.545794
v 6.499853 1.325725 5.545794
v 6.499853 1.209354 5.545794
v 6.499853 1.092983 5.545794
v 6.499853 0.976611 5.545794
v 6.499853 0.860240 5.545794
v 6.499853 0.743869 5.545794
v 6.499853 0.627498 5.545794
v 6.499853 0.511127 5.545794
v 6.611674 0.394756 4.177234
v 6.611674 0.394756 5.489504
v 6.611674 1.907581 5.489504
v 6.611674 1.907581 4.177234
v 6.499853 0.394756 5.489504
v 6.499853 0.394756 4.177234
v 6.499853 1.907581 4.177234
v 6.499853 1.907581 5.489504
v 6.499853 0.511127 4.177234
v 6.499853 0.511127 5.489504
v 6.499853 0.592208 4.177234
v 6.499853 0.592208 5.489504
v 6.499853 0.708579 4.177234
v 6.499853 0.708579 5.489504
v 6.499853 0.824950 4.177234
v 6.499853 0.824950 5.489504
v 6.499853 0.941321 4.177234
v 6.499853 0.941321 5.489504
v 6.499853 1.057693 4.177234
v 6.499853 1.057693 5.489504
v 6.499853 1.174064 4.177234
v 6.499853 1.174064 5.489504
v 6.499853 1.290435 4.177234
v 6.499853 1.290435 5.489504
v 6.499853 1.406806 4.177234
v 6.499853 1.406806 5.489504
v 6.499853 1.523177 4.177234
v 6.499853 1.523177 5.489504
v 6.499853 1.639548 4.177234
v 6.499853 1.639548 5.489504
v 6.499853 1.791210 4.177234
v 6.499853 1.791210 5.489504
v 6.611674 0.673193 5.489504
v 6.611674 0.905936 5.489504
v 6.611674 1.022307 5.489504
v 6.611674 1.255049 4.177234
v 6.611674 1.604163 4.177234
v 6.611674 0.511127 4.177234
v 6.611674 0.511127 5.489504
v 6.611674 0.673193 4.177234
v 6.611674 0.789564 4.177234
v 6.611674 0.789564 5.489504
v 6.611674 0.905936 4.177234
v 6.611674 1.022307 4.177234
v 6.611674 1.138678 4.177234
v 6.611674 1.138678 5.489504
v 6.611674 1.255049 5.489504
v 6.611674 1.371420 4.177234
v 6.611674 1.371420 5.489504
v 6.611674 1.487792 4.177234
v 6.611674 1.487792 5.489504
v 6.611674 1.604163 5.489504
v 6.611674 1.720534 4.177234
v 6.611674 1.720534 5.489504
v 6.611674 1.791210 4.177234
v 6.611674 1.791210 5.489504
vn 1.0000 -0.0000 -0.0000
vn -0.0000 -0.0000 -1.0000
vn -1.0000 -0.0000 -0.0000
vn -0.0000 -0.0000 1.0000
vn -0.0000 -1.0000 -0.0000
vn -0.0000 1.0000 -0.0000
vn 0.5866 -0.8099 -0.0000
vn -0.5866 0.8099 -0.0000
vt 0.015660 0.008043
vt 0.000000 0.008043
vt 0.000000 0.000000
vt 0.015660 0.000000
vt 0.015660 0.407151
vt 0.000000 0.407151
vt 0.000000 0.203575
vt 0.015660 0.203575
vt 0.219235 0.008042
vt 0.203575 0.008042
vt 0.203575 0.000000
vt 0.219235 0.000000
vt 0.219235 0.407151
vt 0.203575 0.407151
vt 0.203575 0.203575
vt 0.219235 0.203575
vt 0.610637 0.211618
vt 0.407151 0.211618
vt 0.407151 0.203575
vt 0.610637 0.203575
vt 0.407151 0.195533
vt 0.610637 0.195533
vt 0.610637 0.203575
vt 0.407151 0.203575
vt 0.407151 0.407151
vt 0.391491 0.407151
vt 0.391491 0.203575
vt 0.407151 0.203575
vt 0.375832 0.407151
vt 0.375832 0.203575
vt 0.360172 0.407151
vt 0.360172 0.203575
vt 0.344512 0.407151
vt 0.344512 0.203575
vt 0.328853 0.407151
vt 0.328853 0.203575
vt 0.313193 0.407151
vt 0.313193 0.203575
vt 0.297533 0.407151
vt 0.297533 0.203575
vt 0.281874 0.407151
vt 0.281874 0.203575
vt 0.266214 0.407151
vt 0.266214 0.203575
vt 0.250554 0.407151
vt 0.250554 0.203575
vt 0.234895 0.407151
vt 0.234895 0.203575
vt 0.407151 0.008042
vt 0.391491 0.008042
vt 0.391491 0.000000
vt 0.407151 0.000000
vt 0.380580 0.008042
vt 0.375832 0.000000
vt 0.364921 0.008042
vt 0.360172 0.000000
vt 0.349261 0.008042
vt 0.344512 0.000000
vt 0.333602 0.008042
vt 0.328853 0.000000
vt 0.317942 0.008042
vt 0.313193 0.000000
vt 0.302282 0.008042
vt 0.297533 0.000000
vt 0.286623 0.008042
vt 0.281874 0.000000
vt 0.270963 0.008042
vt 0.266214 0.000000
vt 0.255303 0.008042
vt 0.250554 0.000000
vt 0.239644 0.008042
vt 0.234895 0.000000
vt 0.203575 0.407151
vt 0.187916 0.407151
vt 0.187916 0.203575
vt 0.203575 0.203575
vt 0.172256 0.407151
vt 0.172256 0.203575
vt 0.156596 0.407151
vt 0.156597 0.203575
vt 0.140937 0.407151
vt 0.140937 0.203575
vt 0.125277 0.407151
vt 0.125277 0.203575
vt 0.109618 0.407151
vt 0.109618 0.203575
vt 0.093958 0.407151
vt 0.093958 0.203575
vt 0.078298 0.407151
vt 0.078298 0.203575
vt 0.062639 0.407151
vt 0.062639 0.203575
vt 0.046979 0.407151
vt 0.046979 0.203575
vt 0.031319 0.407151
vt 0.031319 0.203575
vt 0.203575 0.008043
vt 0.187916 0.008043
vt 0.187916 0.000000
vt 0.203575 0.000000
vt 0.166107 0.008043
vt 0.172256 0.000000
vt 0.150447 0.008043
vt 0.156597 0.000000
vt 0.134788 0.008043
vt 0.140937 0.000000
vt 0.119128 0.008043
vt 0.125277 0.000000
vt 0.103469 0.008043
vt 0.109618 0.000000
vt 0.087809 0.008043
vt 0.093958 0.000000
vt 0.072149 0.008043
vt 0.078298 0.000000
vt 0.056490 0.008043
vt 0.062639 0.000000
vt 0.040830 0.008043
vt 0.046979 0.000000
vt 0.025170 0.008043
vt 0.031319 0.000000
vt 0.031319 0.203575
vt 0.015660 0.203575
vt 0.015660 0.195533
vt 0.025170 0.195533
vt 0.046979 0.203575
vt 0.040830 0.195533
vt 0.062639 0.203575
vt 0.056490 0.195533
vt 0.078298 0.203575
vt 0.072149 0.195533
vt 0.093958 0.203575
vt 0.087809 0.195533
vt 0.109618 0.203575
vt 0.103469 0.195533
vt 0.125277 0.203575
vt 0.119128 0.195533
vt 0.140937 0.203575
vt 0.134788 0.195533
vt 0.156596 0.203575
vt 0.150447 0.195533
vt 0.172256 0.203575
vt 0.166107 0.195533
vt 0.187916 0.203575
vt 0.187916 0.195533
vt 0.203575 0.203575
vt 0.203575 0.195533
vt 0.234895 0.203575
vt 0.219235 0.203575
vt 0.219235 0.195533
vt 0.239644 0.195533
vt 0.187490 0.610961
vt 0.000000 0.610961
vt -0.000000 0.407151
vt 0.187490 0.407151
vt 0.250554 0.203575
vt 0.255303 0.195533
vt 0.266214 0.203575
vt 0.270963 0.195533
vt 0.953088 0.611018
vt 0.937451 0.611855
vt 0.937451 0.407988
vt 0.953088 0.407151
vt 0.281874 0.203575
vt 0.286623 0.195533
vt 0.297533 0.203575
vt 0.302282 0.195533
vt 0.798127 0.203486
vt 0.809038 0.203486
vt 0.819935 0.407062
vt 0.798127 0.407062
vt 0.313193 0.203575
vt 0.317942 0.195533
vt 0.328853 0.203575
vt 0.333602 0.195533
vt 0.562471 0.814771
vt 0.374980 0.814771
vt 0.374980 0.610961
vt 0.562471 0.610961
vt 0.344512 0.203575
vt 0.349261 0.195533
vt 0.360172 0.203575
vt 0.364921 0.195533
vt 0.953088 0.815723
vt 0.937451 0.816560
vt 0.937451 0.612693
vt 0.953088 0.611856
vt 0.375832 0.203575
vt 0.380580 0.195533
vt 0.391491 0.203575
vt 0.391491 0.195533
vt 0.968726 0.611855
vt 0.953088 0.611018
vt 0.953088 0.407151
vt 0.968726 0.407988
vt 0.407151 0.203575
vt 0.407151 0.195533
vt 0.407151 0.000000
vt 0.610637 0.000000
vt 0.610637 0.008043
vt 0.407151 0.008043
vt 0.610637 0.407151
vt 0.407151 0.407151
vt 0.407151 0.399108
vt 0.610637 0.399108
vt 0.203575 0.203575
vt 0.203575 0.195533
vt 0.000000 0.203575
vt 0.000000 0.195533
vt 0.830846 0.407062
vt 0.819935 0.407062
vt 0.819935 0.203486
vt 0.841744 0.203487
vt 0.749961 0.814771
vt 0.562471 0.610961
vt 0.749961 0.610961
vt 0.798127 0.203810
vt 0.610637 0.203810
vt 0.610637 -0.000000
vt 0.798127 -0.000000
vt 0.882561 0.407062
vt 0.862152 0.407062
vt 0.862153 0.203486
vt 0.871663 0.203486
vt 0.374980 0.610961
vt 0.187490 0.407151
vt 0.374980 0.407151
vt 0.984363 0.816560
vt 0.968726 0.815723
vt 0.968726 0.611855
vt 0.984363 0.612693
vt 0.187490 0.814771
vt 0.000000 0.814771
vt 0.000000 0.610961
vt 0.187490 0.610961
vt 0.841744 0.203486
vt 0.851255 0.407062
vt 0.841744 0.407062
vt 0.968725 0.816560
vt 0.953088 0.815723
vt 0.953088 0.611855
vt 0.968725 0.612693
vt 0.984363 0.611018
vt 0.968725 0.611855
vt 0.968725 0.407988
vt 0.984363 0.407151
vt 0.937451 0.610961
vt 0.749961 0.610961
vt 0.749961 0.407151
vt 0.937451 0.407151
vt 1.000000 0.611018
vt 0.984363 0.611855
vt 0.984363 0.407988
vt 1.000000 0.407151
vt 0.562470 0.610961
vt 0.374980 0.610961
vt 0.374980 0.407151
vt 0.562470 0.407151
vt 0.937451 0.814447
vt 0.749961 0.814447
vt 0.749961 0.610961
vt 0.937451 0.610961
vt 0.985617 0.203486
vt 0.798127 0.203486
vt 0.798127 0.000000
vt 0.985617 0.000000
vt 0.749961 0.610961
vt 0.562471 0.610961
vt 0.562471 0.407151
vt 0.749961 0.407151
vt 1.000000 0.816559
vt 0.984363 0.815722
vt 0.984363 0.611856
vt 1.000000 0.612692
vt 0.374980 0.610961
s 0
f 111/1/1 21/4/1 4/3/1 60/2/1
f 21/5/2 33/8/2 8/7/2 4/6/2
f 88/9/3 45/12/3 6/11/3 64/10/3
f 45/13/4 20/16/4 2/15/4 6/14/4
f 58/17/5 1/20/5 5/19/5 61/18/5
f 64/21/6 6/24/6 2/23/6 59/22/6
f 5/25/4 1/28/4 9/27/4 56/26/4
f 56/26/4 9/27/4 10/30/4 55/29/4
f 55/29/4 10/30/4 11/32/4 54/31/4
f 54/31/4 11/32/4 12/34/4 53/33/4
f 53/33/4 12/34/4 13/36/4 52/35/4
f 52/35/4 13/36/4 14/38/4 51/37/4
f 51/37/4 14/38/4 15/40/4 50/39/4
f 50/39/4 15/40/4 16/42/4 49/41/4
f 49/41/4 16/42/4 17/44/4 48/43/4
f 48/43/4 17/44/4 18/46/4 47/45/4
f 47/45/4 18/46/4 19/48/4 46/47/4
f 46/47/4 19/48/4 20/16/4 45/13/4
f 61/49/3 5/52/3 56/51/3 66/50/3
f 66/50/3 56/51/3 55/54/3 68/53/3
f 68/53/3 55/54/3 54/56/3 70/55/3
f 70/55/3 54/56/3 53/58/3 72/57/3
f 72/57/3 53/58/3 52/60/3 74/59/3
f 74/59/3 52/60/3 51/62/3 76/61/3
f 76/61/3 51/62/3 50/64/3 78/63/3
f 78/63/3 50/64/3 49/66/3 80/65/3
f 80/65/3 49/66/3 48/68/3 82/67/3
f 82/67/3 48/68/3 47/70/3 84/69/3
f 84/69/3 47/70/3 46/72/3 86/71/3
f 86/71/3 46/72/3 45/12/3 88/9/3
f 3/73/2 7/76/2 44/75/2 32/74/2
f 32/74/2 44/75/2 43/78/2 31/77/2
f 31/77/2 43/78/2 42/80/2 30/79/2
f 30/79/2 42/80/2 41/82/2 29/81/2
f 29/81/2 41/82/2 40/84/2 28/83/2
f 28/83/2 40/84/2 39/86/2 27/85/2
f 27/85/2 39/86/2 38/88/2 26/87/2
f 26/87/2 38/88/2 37/90/2 25/89/2
f 25/89/2 37/90/2 36/92/2 24/91/2
f 24/91/2 36/92/2 35/94/2 23/93/2
f 23/93/2 35/94/2 34/96/2 22/95/2
f 22/95/2 34/96/2 33/8/2 21/5/2
f 57/97/1 3/100/1 32/99/1 94/98/1
f 94/98/1 32/99/1 31/102/1 96/101/1
f 96/101/1 31/102/1 30/104/1 97/103/1
f 97/103/1 30/104/1 29/106/1 99/105/1
f 99/105/1 29/106/1 28/108/1 100/107/1
f 100/107/1 28/108/1 27/110/1 101/109/1
f 101/109/1 27/110/1 26/112/1 92/111/1
f 92/111/1 26/112/1 25/114/1 104/113/1
f 104/113/1 25/114/1 24/116/1 106/115/1
f 106/115/1 24/116/1 23/118/1 93/117/1
f 93/117/1 23/118/1 22/120/1 109/119/1
f 109/119/1 22/120/1 21/4/1 111/1/1
f 19/121/1 110/124/1 112/123/1 20/122/1
f 18/125/1 108/126/1 110/124/1 19/121/1
f 108/126/1 93/117/1 109/119/1 110/124/1
f 17/127/1 107/128/1 108/126/1 18/125/1
f 16/129/1 105/130/1 107/128/1 17/127/1
f 105/130/1 104/113/1 106/115/1 107/128/1
f 15/131/1 103/132/1 105/130/1 16/129/1
f 14/133/1 102/134/1 103/132/1 15/131/1
f 102/134/1 101/109/1 92/111/1 103/132/1
f 13/135/1 91/136/1 102/134/1 14/133/1
f 12/137/1 90/138/1 91/136/1 13/135/1
f 90/138/1 99/105/1 100/107/1 91/136/1
f 11/139/1 98/140/1 90/138/1 12/137/1
f 10/141/1 89/142/1 98/140/1 11/139/1
f 89/142/1 96/101/1 97/103/1 98/140/1
f 9/143/1 95/144/1 89/142/1 10/141/1
f 1/145/1 58/146/1 95/144/1 9/143/1
f 58/146/1 57/97/1 94/98/1 95/144/1
f 34/147/3 85/150/3 87/149/3 33/148/3
f 75/151/7 101/154/7 102/153/7 76/152/7
f 35/155/3 83/156/3 85/150/3 34/147/3
f 83/156/3 84/69/3 86/71/3 85/150/3
f 36/157/3 81/158/3 83/156/3 35/155/3
f 76/159/2 102/162/2 91/161/2 74/160/2
f 37/163/3 79/164/3 81/158/3 36/157/3
f 79/164/3 80/65/3 82/67/3 81/158/3
f 38/165/3 77/166/3 79/164/3 37/163/3
f 65/167/4 94/170/4 96/169/4 67/168/4
f 39/171/3 75/172/3 77/166/3 38/165/3
f 75/172/3 76/61/3 78/63/3 77/166/3
f 40/173/3 73/174/3 75/172/3 39/171/3
f 67/175/7 96/178/7 89/177/7 68/176/7
f 41/179/3 71/180/3 73/174/3 40/173/3
f 71/180/3 72/57/3 74/59/3 73/174/3
f 42/181/3 69/182/3 71/180/3 41/179/3
f 84/183/2 108/186/2 107/185/2 82/184/2
f 43/187/3 67/188/3 69/182/3 42/181/3
f 67/188/3 68/53/3 70/55/3 69/182/3
f 44/189/3 65/190/3 67/188/3 43/187/3
f 73/191/4 100/194/4 101/193/4 75/192/4
f 7/195/3 62/196/3 65/190/3 44/189/3
f 62/196/3 61/49/3 66/50/3 65/190/3
f 8/197/6 63/200/6 60/199/6 4/198/6
f 63/200/6 64/21/6 59/22/6 60/199/6
f 3/201/5 57/204/5 62/203/5 7/202/5
f 57/204/5 58/17/5 61/18/5 62/203/5
f 33/148/3 87/149/3 63/206/3 8/205/3
f 87/149/3 88/9/3 64/10/3 63/206/3
f 20/122/1 112/123/1 59/208/1 2/207/1
f 112/123/1 111/1/1 60/2/1 59/208/1
f 68/209/2 89/212/2 95/211/2 66/210/2
f 83/213/7 93/215/7 108/214/7 84/175/7
f 70/216/8 98/219/8 97/218/8 69/217/8
f 85/220/4 109/223/4 111/222/4 87/221/4
f 78/224/8 103/226/8 92/225/8 77/151/8
f 77/227/4 92/230/4 104/229/4 79/228/4
f 86/231/8 110/234/8 109/233/8 85/232/8
f 88/235/2 112/237/2 110/236/2 86/222/2
f 69/238/4 97/241/4 99/240/4 71/239/4
f 80/242/2 105/245/2 103/244/2 78/243/2
f 71/246/7 99/249/7 90/248/7 72/247/7
f 72/250/2 90/253/2 98/252/2 70/251/2
f 79/254/7 104/257/7 105/256/7 80/255/7
f 87/258/5 111/261/5 112/260/5 88/259/5
f 66/262/6 95/265/6 94/264/6 65/263/6
f 74/266/8 91/269/8 100/268/8 73/267/8
f 81/270/4 106/273/4 93/272/4 83/271/4
f 82/176/8 107/274/8 106/234/8 81/231/8
