# Blender 4.2.0
# www.blender.org
mtllib Walls.mtl
o Cube
v 6.630919 -2.958849 8.185163
v 6.630919 2.137968 8.185163
v 6.630919 -2.958849 -6.691216
v 6.630919 2.137968 -6.691217
v 8.098708 -2.958849 8.185163
v 8.098708 2.137968 8.185163
v 8.098708 -2.958849 -6.691216
v 8.098708 2.137968 -6.691217
v 6.630919 2.137968 6.626870
v 8.098708 -2.958849 6.626870
v 8.098708 2.137968 6.626870
v -6.753029 -2.958849 6.626870
v -6.753029 -2.958849 8.185163
v -6.753029 2.137968 8.185163
v -6.753029 2.137968 6.626870
v 6.630919 2.137968 3.955016
v 8.098708 -2.958849 3.955016
v 8.098708 2.137968 3.955016
v 8.098708 2.137968 5.707633
v 6.630919 2.137968 5.707633
v 8.098708 -2.958849 5.707633
v 6.630919 0.203529 8.185163
v 6.630919 0.203529 -6.691217
v 8.098708 0.203529 -6.691217
v 8.098708 0.203529 8.185163
v 8.098708 0.203529 6.626870
v 6.630919 0.203529 6.626870
v -6.753029 0.203529 8.185163
v -6.753029 0.203529 6.626870
v 8.098708 0.203529 3.955016
v 6.630919 0.203529 3.955016
v 6.630919 0.203529 5.707633
v 8.098708 0.203529 5.707633
v 6.630919 1.853991 5.508589
v 6.630919 1.853991 4.154059
v 6.630919 0.450171 4.154059
v 6.630919 0.450171 5.508589
v 8.098708 1.853991 5.508589
v 8.098708 1.853991 4.154059
v 8.098708 0.450171 4.154059
v 8.098708 0.450171 5.508589
v 6.630919 -2.399846 -6.691216
v 8.098708 -2.408127 -6.691217
v 8.098708 -2.408127 8.185163
v 8.098708 -2.408127 6.626870
v 6.630919 -2.399846 6.626870
v -6.753029 -2.399846 6.626870
v 8.098708 -2.408128 3.955016
v 6.630919 -2.399846 3.955016
v 6.630919 -2.399846 5.707633
v 8.098708 -2.408128 5.707633
v 6.630919 -2.408128 8.185163
v -6.753029 -2.408128 8.185163
v 6.411245 -2.399846 -6.691215
v 6.411245 -2.958849 -6.691215
v 6.411245 -2.958849 5.700385
v 6.411245 -2.958849 6.380008
v 6.411245 -2.399846 6.380008
v -6.753029 -2.399846 6.380008
v -6.753029 -2.958849 6.380008
v 6.411245 -2.958849 3.953653
v 6.411245 -2.399846 3.953653
v 6.411245 -2.399846 5.700385
vn -1.0000 -0.0000 -0.0000
vn -0.0000 -0.0000 -1.0000
vn 1.0000 -0.0000 -0.0000
vn -0.0000 -0.0000 1.0000
vn -0.0000 1.0000 -0.0000
vn -0.0000 -1.0000 -0.0000
vt 0.258804 0.365701
vt 0.215844 0.365701
vt 0.215844 0.269329
vt 0.258804 0.269329
vt 0.341449 0.042960
vt 0.341449 0.000000
vt 0.440279 0.000000
vt 0.440279 0.042960
vt 0.258804 0.014106
vt 0.215844 0.014106
vt 0.215844 -0.000000
vt 0.258804 -0.000000
vt 0.042960 1.000000
vt -0.000000 1.000000
vt 0.000000 0.901171
vt 0.042960 0.901171
vt 0.314673 0.148770
vt 0.215844 0.148770
vt 0.314673 0.134664
vt 0.314673 0.157092
vt 0.215844 0.157092
vt 0.397271 0.339843
vt 0.384856 0.339843
vt 0.384856 0.333691
vt 0.397271 0.333691
vt 0.258804 0.022427
vt 0.215844 0.022427
vt 0.000000 0.000000
vt 0.042960 0.000000
vt 0.341449 0.341580
vt 0.341449 0.298620
vt 0.355555 0.298620
vt 0.355555 0.341580
vt 0.440279 0.901171
vt 0.440279 -0.000000
vt 0.442514 0.014791
vt 0.442513 0.901171
vt 0.201738 0.098829
vt 0.215844 0.098829
vt 0.215843 1.000000
vt 0.201737 1.000000
vt 0.384856 0.317879
vt 0.397271 0.317879
vt 0.258804 0.134664
vt 0.215844 0.134664
vt 0.215844 0.038292
vt 0.258804 0.038292
vt 0.384856 0.221519
vt 0.397271 0.221519
vt 0.314673 0.269329
vt 0.215844 0.269329
vt 0.215844 0.172957
vt 0.314673 0.172957
vt 0.253327 0.367503
vt 0.222150 0.367503
vt 0.258804 0.389887
vt 0.215844 0.389887
vt 0.215844 0.381566
vt 0.258804 0.381566
vt 0.222150 0.024229
vt 0.222150 0.036490
vt 0.329035 0.000000
vt 0.341449 0.000000
vt 0.341449 0.886379
vt 0.329035 0.886379
vt 0.316804 0.038292
vt 0.316804 0.022427
vt 0.316620 0.389887
vt 0.316620 0.381566
vt 0.316620 0.365701
vt 0.316804 0.134664
vt 0.100961 -0.000000
vt 0.143921 0.000000
vt 0.143921 0.901171
vt 0.100961 0.901171
vt 0.341449 0.399580
vt 0.355555 0.399396
vt 0.100961 0.901171
vt 0.100961 0.000000
vt 0.316804 0.014106
vt 0.100961 1.000000
vt 0.316804 0.000000
vt 0.341449 0.100777
vt 0.440279 0.100961
vt 0.316620 0.269329
vt 0.253327 0.379764
vt 0.222150 0.379764
vt 0.341449 0.199790
vt 0.372626 0.199790
vt 0.372626 0.298620
vt 0.397271 0.320348
vt 0.397271 0.221519
vt 0.409532 0.221519
vt 0.409532 0.320348
vt 0.341449 0.100961
vt 0.372626 0.100961
vt 0.372626 0.199790
vt 0.341449 0.199790
vt 0.253327 0.036490
vt 0.253327 0.024229
vt 0.367817 0.298620
vt 0.367817 0.397449
vt 0.355555 0.397449
vt 0.355555 0.298620
vt 0.399831 0.199790
vt 0.387417 0.199790
vt 0.387601 0.100961
vt 0.399831 0.100961
vt 0.384856 0.235625
vt 0.372626 0.235625
vt 0.372626 0.221519
vt 0.384856 0.221519
vt 0.329035 1.000000
vt 0.316804 1.000000
vt 0.316804 0.901171
vt 0.329035 0.901171
vt 0.384856 0.243946
vt 0.372626 0.243946
vt 0.316804 0.000000
vt 0.329035 0.000000
vt 0.385040 0.372524
vt 0.372810 0.372524
vt 0.372626 0.358418
vt 0.385040 0.358418
vt 0.384856 0.356183
vt 0.372626 0.356183
vt 0.372626 0.259811
vt 0.384856 0.259811
vt 0.387417 0.125147
vt 0.387417 0.221519
vt 0.372626 0.221519
vt 0.372626 0.125159
vt 0.201737 0.000000
vt 0.201737 0.901171
vt 0.372626 0.356183
vt 0.385040 0.356183
vt 0.387417 0.109282
vt 0.372626 0.109347
vt 0.399831 0.214581
vt 0.387417 0.214581
vt 0.387417 0.100961
vt 0.372626 0.103195
vt 0.201738 0.000000
s 0
g Cube_Wall_Base
usemtl Wall_Base
f 57/22/1 58/23/1 63/24/1 56/25/1
f 47/34/5 46/35/5 58/36/5 59/37/5
f 56/25/1 63/24/1 62/42/1 61/43/1
f 61/43/1 62/42/1 54/48/1 55/49/1
f 58/62/2 57/63/2 60/64/2 59/65/2
f 34/31/2 38/88/2 41/89/2 37/90/2
f 37/91/5 41/92/5 40/93/5 36/94/5
f 35/95/4 36/96/4 40/97/4 39/98/4
f 35/101/6 39/102/6 38/103/6 34/104/6
f 3/105/2 42/106/2 43/107/2 7/108/2
f 10/109/3 45/110/3 44/111/3 5/112/3
f 5/113/4 44/114/4 52/115/4 1/116/4
f 21/117/3 51/118/3 45/110/3 10/109/3
f 1/116/4 52/115/4 53/119/4 13/120/4
f 13/121/1 53/122/1 47/123/1 12/124/1
f 7/125/3 43/126/3 48/127/3 17/128/3
f 49/129/5 42/130/5 54/131/5 62/132/5
f 17/128/3 48/127/3 51/118/3 21/117/3
f 12/124/1 47/123/1 59/135/1 60/136/1
f 50/137/5 49/129/5 62/132/5 63/138/5
f 42/106/2 3/105/2 55/139/2 54/140/2
f 46/141/5 50/137/5 63/138/5 58/142/5
g Cube_Wall_wall
usemtl Wall_wall
f 31/1/1 16/2/1 4/3/1 23/4/1
f 23/5/2 4/6/2 8/7/2 24/8/2
f 26/9/3 11/10/3 6/11/3 25/12/3
f 25/13/4 6/14/4 2/15/4 22/16/4
f 11/17/5 9/18/5 6/19/5
f 19/20/5 20/21/5 9/18/5 11/17/5
f 33/26/3 19/27/3 11/10/3 26/9/3
f 22/16/4 2/15/4 14/28/4 28/29/4
f 28/30/1 14/31/1 15/32/1 29/33/1
f 2/38/5 9/39/5 15/40/5 14/41/5
f 24/44/3 8/45/3 18/46/3 30/47/3
f 8/50/5 4/51/5 16/52/5 18/53/5
f 16/2/1 31/1/1 36/54/1 35/55/1
f 27/56/1 9/57/1 20/58/1 32/59/1
f 38/60/3 39/61/3 18/46/3 19/27/3
f 18/53/5 16/52/5 20/21/5 19/20/5
f 48/66/3 30/47/3 33/26/3 51/67/3
f 46/68/1 27/56/1 32/59/1 50/69/1
f 50/69/1 32/59/1 31/1/1 49/70/1
f 43/71/3 24/44/3 30/47/3 48/66/3
f 9/72/2 27/73/2 29/74/2 15/75/2
f 53/76/1 28/30/1 29/33/1 47/77/1
f 52/78/4 22/16/4 28/29/4 53/79/4
f 51/67/3 33/26/3 26/9/3 45/80/3
f 44/81/4 25/13/4 22/16/4 52/78/4
f 45/80/3 26/9/3 25/12/3 44/82/3
f 42/83/2 23/5/2 24/8/2 43/84/2
f 49/70/1 31/1/1 23/4/1 42/85/1
f 31/1/1 32/59/1 37/86/1 36/54/1
f 32/59/1 20/58/1 34/87/1 37/86/1
f 20/58/1 16/2/1 35/55/1 34/87/1
f 39/61/3 40/99/3 30/47/3 18/46/3
f 41/100/3 38/60/3 19/27/3 33/26/3
f 40/99/3 41/100/3 33/26/3 30/47/3
f 27/73/2 46/133/2 47/134/2 29/74/2
f 6/143/5 9/39/5 2/38/5
